<svg width="124" height="48" viewBox="0 0 124 48" fill="none" xmlns="http://www.w3.org/2000/svg">
<path d="M9.06095 36C7.90337 36 6.8659 35.8034 5.94857 35.4103C5.05308 35.0171 4.33232 34.4383 3.78629 33.6739C3.2621 32.9095 3 31.9812 3 30.8891C3 29.7752 3.2621 28.8579 3.78629 28.1371C4.33232 27.3945 5.064 26.8376 5.98133 26.4663C6.92051 26.095 7.97981 25.9093 9.15924 25.9093H14.0735V24.861C14.0735 23.9218 13.7896 23.1683 13.2217 22.6004C12.6538 22.0325 11.7802 21.7486 10.6008 21.7486C9.44317 21.7486 8.5586 22.0216 7.94705 22.5676C7.33549 23.1137 6.93143 23.8235 6.73486 24.6971L3.58971 23.6815C3.85181 22.8079 4.26679 22.0216 4.83467 21.3227C5.42438 20.6019 6.19975 20.0231 7.16076 19.5863C8.12178 19.1495 9.27937 18.931 10.6335 18.931C12.7303 18.931 14.3793 19.4662 15.5806 20.5364C16.7818 21.6066 17.3825 23.1246 17.3825 25.0903V31.741C17.3825 32.3962 17.6883 32.7238 18.2998 32.7238H19.6758V35.5413H17.1531C16.3887 35.5413 15.7662 35.3448 15.2857 34.9516C14.8052 34.5585 14.565 34.0234 14.565 33.3463V33.248H14.0735C13.8988 33.5756 13.6367 33.9578 13.2872 34.3947C12.9378 34.8315 12.4245 35.2137 11.7474 35.5413C11.0703 35.8471 10.1749 36 9.06095 36ZM9.55238 33.2152C10.9065 33.2152 11.9986 32.833 12.8286 32.0686C13.6585 31.2823 14.0735 30.2121 14.0735 28.8579V28.5303H9.35581C8.46032 28.5303 7.73956 28.7269 7.19352 29.12C6.64749 29.4913 6.37448 30.0483 6.37448 30.7909C6.37448 31.5335 6.65841 32.1232 7.22629 32.56C7.79416 32.9968 8.56952 33.2152 9.55238 33.2152Z" fill="white"/>
<path d="M27.4432 35.5413C26.4604 35.5413 25.6741 35.2465 25.0844 34.6568C24.5165 34.067 24.2326 33.2808 24.2326 32.2979V22.24H19.7769V19.3897H24.2326V14.0495H27.607V19.3897H32.423V22.24H27.607V31.7082C27.607 32.3634 27.9128 32.691 28.5244 32.691H31.8988V35.5413H27.4432Z" fill="white"/>
<path d="M35.7462 35.5413V12.608H39.1207V35.5413H35.7462Z" fill="white"/>
<path d="M47.698 36C46.5404 36 45.5029 35.8034 44.5856 35.4103C43.6901 35.0171 42.9694 34.4383 42.4233 33.6739C41.8991 32.9095 41.637 31.9812 41.637 30.8891C41.637 29.7752 41.8991 28.8579 42.4233 28.1371C42.9694 27.3945 43.701 26.8376 44.6184 26.4663C45.5575 26.095 46.6168 25.9093 47.7963 25.9093H52.7106V24.861C52.7106 23.9218 52.4266 23.1683 51.8587 22.6004C51.2909 22.0325 50.4172 21.7486 49.2378 21.7486C48.0802 21.7486 47.1956 22.0216 46.5841 22.5676C45.9725 23.1137 45.5685 23.8235 45.3719 24.6971L42.2267 23.6815C42.4888 22.8079 42.9038 22.0216 43.4717 21.3227C44.0614 20.6019 44.8368 20.0231 45.7978 19.5863C46.7588 19.1495 47.9164 18.931 49.2706 18.931C51.3673 18.931 53.0163 19.4662 54.2176 20.5364C55.4189 21.6066 56.0195 23.1246 56.0195 25.0903V31.741C56.0195 32.3962 56.3253 32.7238 56.9368 32.7238H58.3128V35.5413H55.7902C55.0257 35.5413 54.4033 35.3448 53.9227 34.9516C53.4422 34.5585 53.202 34.0234 53.202 33.3463V33.248H52.7106C52.5358 33.5756 52.2737 33.9578 51.9243 34.3947C51.5748 34.8315 51.0615 35.2137 50.3845 35.5413C49.7074 35.8471 48.8119 36 47.698 36ZM48.1894 33.2152C49.5436 33.2152 50.6356 32.833 51.4656 32.0686C52.2956 31.2823 52.7106 30.2121 52.7106 28.8579V28.5303H47.9928C47.0974 28.5303 46.3766 28.7269 45.8306 29.12C45.2845 29.4913 45.0115 30.0483 45.0115 30.7909C45.0115 31.5335 45.2954 32.1232 45.8633 32.56C46.4312 32.9968 47.2066 33.2152 48.1894 33.2152Z" fill="white"/>
<path d="M60.0193 35.5413V19.3897H63.3283V21.8141H63.8524C64.1582 21.1589 64.7043 20.5473 65.4905 19.9794C66.2768 19.4116 67.4453 19.1276 68.9961 19.1276C70.2192 19.1276 71.3003 19.4006 72.2395 19.9467C73.2005 20.4927 73.954 21.2681 74.5001 22.2728C75.0461 23.2556 75.3191 24.446 75.3191 25.8438V35.5413H71.9446V26.1059C71.9446 24.7081 71.5952 23.6815 70.8963 23.0263C70.1973 22.3492 69.2363 22.0107 68.0132 22.0107C66.6154 22.0107 65.4905 22.4693 64.6387 23.3867C63.8088 24.304 63.3938 25.6363 63.3938 27.3836V35.5413H60.0193Z" fill="white"/>
<path d="M84.8991 35.5413C83.9162 35.5413 83.13 35.2465 82.5402 34.6568C81.9724 34.067 81.6884 33.2808 81.6884 32.2979V22.24H77.2328V19.3897H81.6884V14.0495H85.0629V19.3897H89.8789V22.24H85.0629V31.7082C85.0629 32.3634 85.3687 32.691 85.9802 32.691H89.3547V35.5413H84.8991Z" fill="white"/>
<path d="M93.2021 35.5413V19.3897H96.5766V35.5413H93.2021ZM94.9057 17.1947C94.2505 17.1947 93.6935 16.9872 93.2349 16.5722C92.7981 16.1354 92.5796 15.5784 92.5796 14.9013C92.5796 14.2243 92.7981 13.6782 93.2349 13.2632C93.6935 12.8264 94.2505 12.608 94.9057 12.608C95.5828 12.608 96.1398 12.8264 96.5766 13.2632C97.0134 13.6782 97.2318 14.2243 97.2318 14.9013C97.2318 15.5784 97.0134 16.1354 96.5766 16.5722C96.1398 16.9872 95.5828 17.1947 94.9057 17.1947Z" fill="white"/>
<path d="M107.709 36C106.093 36 104.652 35.6724 103.385 35.0171C102.14 34.3401 101.157 33.379 100.436 32.1341C99.7154 30.8891 99.355 29.4149 99.355 27.7112V27.2198C99.355 25.5162 99.7154 24.0528 100.436 22.8297C101.157 21.5848 102.14 20.6237 103.385 19.9467C104.652 19.2696 106.093 18.931 107.709 18.931C109.326 18.931 110.767 19.2696 112.034 19.9467C113.301 20.6237 114.294 21.5848 115.015 22.8297C115.736 24.0528 116.096 25.5162 116.096 27.2198V27.7112C116.096 29.4149 115.736 30.8891 115.015 32.1341C114.294 33.379 113.301 34.3401 112.034 35.0171C110.767 35.6724 109.326 36 107.709 36ZM107.709 32.9859C109.195 32.9859 110.396 32.5163 111.313 31.5771C112.252 30.6161 112.722 29.2947 112.722 27.613V27.3181C112.722 25.6363 112.263 24.3258 111.346 23.3867C110.429 22.4257 109.216 21.9451 107.709 21.9451C106.246 21.9451 105.045 22.4257 104.105 23.3867C103.188 24.3258 102.729 25.6363 102.729 27.3181V27.613C102.729 29.2947 103.188 30.6161 104.105 31.5771C105.045 32.5163 106.246 32.9859 107.709 32.9859Z" fill="#F73831"/>
<path d="M117.87 18.93C117.203 18.93 116.603 18.7856 116.07 18.4969C115.548 18.197 115.132 17.7861 114.821 17.2641C114.521 16.7421 114.371 16.1424 114.371 15.465C114.371 14.7875 114.521 14.1878 114.821 13.6659C115.132 13.1439 115.548 12.7385 116.07 12.4498C116.603 12.1499 117.203 12 117.87 12C118.536 12 119.13 12.1499 119.652 12.4498C120.185 12.7385 120.602 13.1439 120.901 13.6659C121.212 14.1878 121.368 14.7875 121.368 15.465C121.368 16.1424 121.212 16.7421 120.901 17.2641C120.602 17.7861 120.185 18.197 119.652 18.4969C119.13 18.7856 118.536 18.93 117.87 18.93ZM117.87 18.247C118.714 18.247 119.385 17.9971 119.885 17.4973C120.396 16.9865 120.651 16.309 120.651 15.465C120.651 14.621 120.396 13.9491 119.885 13.4493C119.385 12.9384 118.714 12.683 117.87 12.683C117.025 12.683 116.348 12.9384 115.837 13.4493C115.326 13.9491 115.071 14.621 115.071 15.465C115.071 16.309 115.326 16.9865 115.837 17.4973C116.348 17.9971 117.025 18.247 117.87 18.247ZM116.67 17.2808V13.5826H118.086C118.497 13.5826 118.808 13.6825 119.019 13.8824C119.23 14.0823 119.335 14.3211 119.335 14.5987C119.335 14.8098 119.28 14.9985 119.169 15.1651C119.069 15.3206 118.902 15.4428 118.669 15.5316V15.6649C118.858 15.676 118.991 15.7426 119.069 15.8648C119.158 15.9759 119.202 16.1147 119.202 16.2813V17.2808H118.519V16.2646C118.519 16.0314 118.403 15.9148 118.169 15.9148H117.336V17.2808H116.67ZM117.336 15.3151H118.103C118.292 15.3151 118.43 15.2595 118.519 15.1485C118.608 15.0263 118.652 14.893 118.652 14.7487C118.652 14.5932 118.608 14.4655 118.519 14.3655C118.43 14.2545 118.292 14.1989 118.103 14.1989H117.336V15.3151Z" fill="white"/>
</svg>
